<svg width="36" height="28" viewBox="0 0 36 28" fill="none" xmlns="http://www.w3.org/2000/svg">
<path d="M35.6779 4.14351L35.6887 23.5016C35.6887 25.7854 33.8245 27.656 31.5592 27.656L4.91788 27.6778C2.63093 27.6778 0.766688 25.8072 0.766688 23.5342L0.74501 4.17613C0.74501 1.88143 2.60925 0.0217507 4.88536 0.0217507L31.5375 0C33.8136 0 35.6779 1.84881 35.6779 4.14351Z" fill="#F6C859"/>
<path d="M14.2174 23.9801C14.0657 23.9801 13.9248 23.904 13.8597 23.7626C13.7622 23.5669 13.8381 23.3167 14.0332 23.2189C14.6184 22.9144 15.4097 22.3488 15.8757 21.3809C16.461 20.1411 16.3093 18.7926 16.06 18.673C15.9949 18.6403 15.7565 18.7708 15.6048 18.847C15.2254 19.0427 14.6943 19.3146 14.0873 19.0971C13.4912 18.8905 13.1986 18.3576 13.0577 18.0966C12.1364 16.4109 11.8546 12.039 12.8192 9.86394C13.1444 9.14616 13.5779 8.71115 14.1199 8.58065C14.6726 8.45014 15.1279 8.67852 15.4855 8.87428C15.7782 9.02654 15.9299 9.09179 16.0275 9.03741C16.4068 8.80903 16.396 7.41698 15.8649 6.31857C15.3988 5.33979 14.6076 4.77428 14.0223 4.48064C13.8272 4.38276 13.7405 4.13263 13.8489 3.93687C13.9464 3.74112 14.1957 3.65412 14.3908 3.76287C15.0845 4.12176 16.0383 4.79603 16.5911 5.98144C17.1438 7.1451 17.404 9.15704 16.4393 9.74431C15.9516 10.0379 15.4855 9.79869 15.117 9.6138C14.8352 9.47242 14.5642 9.33105 14.3041 9.3963C13.9464 9.4833 13.708 9.88569 13.5563 10.2119C12.7108 12.1151 12.9601 16.2478 13.7622 17.7268C13.9031 17.9769 14.0657 18.2488 14.3475 18.3467C14.6184 18.4446 14.8786 18.325 15.2362 18.1401C15.5939 17.9552 15.9841 17.7594 16.4068 17.9552C17.3173 18.4011 17.2522 20.3478 16.6019 21.7398C16.0383 22.9252 15.0953 23.5995 14.4017 23.9584C14.3366 23.9693 14.2716 23.9801 14.2174 23.9801Z" fill="#7D662D"/>
<path d="M12.9926 10.5926H5.71994C5.49233 10.5926 5.31891 10.4077 5.31891 10.1902C5.31891 9.97269 5.49233 9.78781 5.7091 9.78781H12.9818C13.2094 9.78781 13.3828 9.97269 13.3828 10.1902C13.3937 10.4077 13.2203 10.5926 12.9926 10.5926Z" fill="#7D662D"/>
<path d="M12.9926 17.9008H5.71994C5.49233 17.9008 5.31891 17.7159 5.31891 17.4984C5.31891 17.2701 5.50316 17.096 5.71994 17.096H12.9926C13.2203 17.096 13.3937 17.2809 13.3937 17.4984C13.4045 17.7159 13.2203 17.9008 12.9926 17.9008Z" fill="#7D662D"/>
<path d="M22.7041 23.9693C22.639 23.9693 22.574 23.9584 22.5198 23.9258C21.8261 23.5669 20.8723 22.8926 20.3196 21.7072C19.6584 20.3151 19.6042 18.3685 20.5038 17.9226C20.9265 17.7159 21.3275 17.9226 21.6744 18.0966C22.0429 18.2815 22.303 18.4011 22.5631 18.3032C22.8666 18.1945 23.04 17.8791 23.1484 17.6833C23.9505 16.2043 24.1889 12.0608 23.3435 10.1684C23.1918 9.84219 22.9533 9.42892 22.5957 9.3528C22.3789 9.29842 22.238 9.08091 22.2922 8.8634C22.3464 8.6459 22.5631 8.51539 22.7799 8.55889C23.3219 8.6894 23.7554 9.11354 24.0806 9.83131C25.056 12.0064 24.7742 16.3891 23.8529 18.0639C23.712 18.325 23.4194 18.8578 22.8233 19.0645C22.2163 19.282 21.6852 19.0101 21.3059 18.8143C21.1541 18.7382 20.9157 18.6186 20.8506 18.6403C20.6122 18.76 20.4496 20.1085 21.0457 21.3483C21.5118 22.3271 22.303 22.8926 22.8883 23.1862C23.0834 23.2841 23.1701 23.5342 23.0617 23.73C22.9967 23.8931 22.8558 23.9693 22.7041 23.9693Z" fill="#7D662D"/>
<path d="M21.0782 8.96128C20.9048 8.96128 20.7531 8.85253 20.6989 8.6894C19.8318 6.07932 21.8586 4.06738 22.5089 3.74112C22.704 3.63236 22.9533 3.71937 23.0509 3.91512C23.1484 4.11088 23.0726 4.36101 22.8775 4.45889C22.5848 4.61114 20.7206 6.20982 21.4576 8.42839C21.5335 8.6459 21.4142 8.87428 21.1975 8.93953C21.165 8.96128 21.1216 8.96128 21.0782 8.96128Z" fill="#7D662D"/>
<path d="M31.1907 10.5817H23.918C23.6904 10.5817 23.5169 10.3968 23.5169 10.1793C23.5169 9.96181 23.7012 9.77693 23.918 9.77693H31.1907C31.4183 9.77693 31.5917 9.96181 31.5917 10.1793C31.5917 10.3968 31.4075 10.5817 31.1907 10.5817Z" fill="#7D662D"/>
<path d="M31.1907 17.8791H23.918C23.6904 17.8791 23.5169 17.6942 23.5169 17.4767C23.5169 17.2483 23.7012 17.0743 23.918 17.0743H31.1907C31.4183 17.0743 31.5917 17.2592 31.5917 17.4767C31.5917 17.7051 31.4183 17.8791 31.1907 17.8791Z" fill="#7D662D"/>
</svg>
