<svg width="354" height="225" viewBox="0 0 354 225" fill="none" xmlns="http://www.w3.org/2000/svg">
<path d="M5.76614 88.6232C5.31092 97.2582 4.8557 106.132 0.065033 114.245V111.559C3.64178 104.382 4.0428 96.6057 4.45467 88.5579C5.09415 76.3123 5.75531 63.6425 18.7291 53.2348C21.7314 50.8205 24.712 49.0913 27.6601 47.8841L27.6493 35.8234C27.6493 33.5287 29.5135 31.669 31.7897 31.669L58.431 31.6473C60.7071 31.6473 62.5713 33.4961 62.5713 35.7908L62.5822 48.1017C72.5862 49.5263 82.2976 49.4611 92.6376 41.1741C105.156 31.147 105.763 19.3146 106.414 6.81885C106.533 4.61115 106.652 2.38171 106.825 0.15226H108.148C107.953 2.35995 107.833 4.62203 107.714 6.8841C107.096 19.1406 106.435 31.8104 93.4614 42.2072C82.8395 50.7226 72.5754 50.8205 62.593 49.4284V55.1489C62.593 57.4327 60.7288 59.3033 58.4635 59.3033L31.8222 59.325C29.5352 59.325 27.671 57.4544 27.671 55.1815V49.2653C24.9938 50.4399 22.295 52.0603 19.5529 54.268C7.02343 64.295 6.41646 76.1057 5.76614 88.6232Z" fill="url(#paint0_linear_1_3)"/>
<path d="M3.94525 178.802C2.65546 178.573 1.38734 178.356 0.108383 178.16V176.833C1.46321 177.04 2.81804 177.279 4.16203 177.518C16.4639 179.639 28.0829 181.651 40.5906 171.613C53.1092 161.586 53.7162 149.764 54.3665 137.258C55.006 125.012 55.6563 112.342 68.6301 101.935C81.6039 91.5269 94.0575 93.6802 106.11 95.7683C118.412 97.889 130.031 99.9118 142.539 89.8847C155.046 79.8577 155.664 68.0253 156.315 55.5295C156.954 43.2839 157.593 30.6141 170.578 20.2064C183.552 9.80956 196.006 11.952 208.047 14.0401C220.349 16.1608 231.968 18.1836 244.476 8.15651C247.706 5.56818 250.134 2.87109 251.976 0.0652542H253.515C251.553 3.24085 248.898 6.29683 245.31 9.18967C232.337 19.5865 219.883 17.4223 207.83 15.356C195.529 13.2135 183.91 11.2125 171.402 21.2396C158.883 31.2666 158.276 43.0881 157.626 55.5948C156.986 67.8404 156.336 80.5102 143.362 90.9179C130.389 101.315 117.946 99.1723 105.893 97.0842C93.5914 94.9418 81.9616 92.9407 69.443 102.968C56.9244 112.995 56.3174 124.816 55.6671 137.323C55.0277 149.569 54.3882 162.238 41.4035 172.646C28.4405 183.043 15.987 180.89 3.94525 178.802Z" fill="url(#paint1_linear_1_3)"/>
<path d="M272.7 34.812L272.754 34.4748H279.788C280.742 34.5183 281.511 34.812 281.771 35.8343L283.311 43.2186C281.804 39.347 278.173 36.1388 272.7 34.812Z" fill="url(#paint2_linear_1_3)"/>
<path d="M283.495 44.3062L283.972 46.0353L288.416 34.638H293.217L286.074 51.299H281.284L277.219 37.3786C280.135 39.26 282.617 42.229 283.495 44.3062Z" fill="url(#paint3_linear_1_3)"/>
<path d="M301.476 39.8255C301.498 36.5847 304.663 34.3008 309.139 34.3008C310.895 34.3008 312.315 34.6706 313.203 35.0077L312.586 38.6184L312.174 38.4335C311.328 38.0963 310.255 37.781 308.77 37.7918C307.004 37.7918 306.169 38.5422 306.169 39.2382C306.158 40.0104 307.145 40.5324 308.727 41.3046C311.339 42.5009 312.553 43.9364 312.521 45.8505C312.499 49.3197 309.399 51.56 304.641 51.56C302.603 51.5383 300.652 51.125 299.59 50.6682L300.23 46.9271L300.804 47.1881C302.289 47.808 303.264 48.069 305.075 48.069C306.375 48.069 307.773 47.5579 307.795 46.4377C307.806 45.6982 307.199 45.1762 305.443 44.3605C303.72 43.5666 301.454 42.2181 301.476 39.8255Z" fill="url(#paint4_linear_1_3)"/>
<path d="M312.239 51.299L318.959 35.9756C319.436 34.899 320.259 34.5945 321.343 34.5945H324.844L328.529 51.2881H324.313C324.313 51.2881 323.901 49.3741 323.76 48.7977H317.951C317.777 49.2327 316.997 51.2881 316.997 51.2881L312.239 51.299Z" fill="url(#paint5_linear_1_3)"/>
<path d="M350.9 10.4077C352.569 13.4202 353.501 16.9003 353.501 20.587L353.523 44.7412C353.155 47.8515 352.992 50.9727 352.829 54.0613C352.179 66.5789 351.572 78.3895 339.054 88.4166C326.535 98.4436 314.916 96.4317 302.625 94.3001C290.583 92.2121 278.13 90.0587 265.156 100.466C252.171 110.863 251.521 123.533 250.892 135.79C250.242 148.285 249.635 160.118 237.116 170.145C224.598 180.172 212.979 178.16 200.688 176.028C188.635 173.94 176.182 171.787 163.208 182.195C150.234 192.591 149.573 205.261 148.944 217.518C148.825 219.78 148.717 222.031 148.511 224.25L77.301 224.304C78.038 223.804 78.7859 223.249 79.5229 222.651C92.5076 212.254 93.1579 199.584 93.7865 187.328C94.4368 174.81 95.0438 163 107.562 152.973C120.081 142.946 131.711 144.947 144.013 147.089C156.065 149.177 168.508 151.33 181.482 140.923C194.456 130.526 195.117 117.856 195.745 105.6C196.396 93.0821 197.003 81.2715 209.521 71.2444C222.04 61.2173 233.659 63.2184 245.95 65.3608C258.002 67.438 270.456 69.6022 283.43 59.1945C287.776 55.7035 290.746 51.9624 292.784 48.0582L292.231 51.299H296.761L299.601 34.6054H296.826C297.325 31.0382 297.509 27.4385 297.683 23.8714C298.105 15.4974 298.539 7.43874 302.527 0.0217514H301.075C297.217 7.62362 296.794 15.8019 296.382 23.8061C296.187 27.482 296.003 31.0926 295.515 34.6054H295.07L293.694 42.7184C291.83 48.1887 288.578 53.3762 282.617 58.1613C270.098 68.1884 258.479 66.1765 246.188 64.0449C234.147 61.9568 221.693 59.8035 208.719 70.2112C195.735 80.6081 195.084 93.2778 194.456 105.534C193.805 118.03 193.198 129.862 180.68 139.89C168.161 149.917 156.542 147.905 144.251 145.773C132.199 143.685 119.745 141.532 106.771 151.939C93.7974 162.347 93.1037 175.028 92.4751 187.273C91.8247 199.791 91.2178 211.602 78.6992 221.629C77.4311 222.64 76.1846 223.543 74.9165 224.304L20.9402 224.347C13.2665 224.358 6.53568 220.258 2.82887 214.136C6.45981 220.628 13.3748 225.011 21.3087 225L332.843 224.772C344.538 224.761 354.011 215.234 354 203.51L353.87 21.2178C353.87 17.2592 352.797 13.5616 350.9 10.4077ZM353.642 202.858C353.653 214.592 344.169 224.108 332.485 224.119L190.088 224.217C190.153 224.152 190.229 224.097 190.315 224.032C202.834 214.005 214.464 216.006 226.765 218.149C238.818 220.237 251.261 222.39 264.235 211.982C277.208 201.585 277.87 188.916 278.498 176.659C279.149 164.142 279.756 152.331 292.274 142.304C304.793 132.277 316.412 134.278 328.703 136.42C336.821 137.812 345.101 139.248 353.599 136.866L353.642 202.858ZM353.588 135.539C345.351 137.965 337.287 136.562 328.909 135.126C316.867 133.038 304.413 130.885 291.44 141.292C278.455 151.689 277.805 164.359 277.176 176.616C276.526 189.111 275.919 200.944 263.4 210.971C250.881 220.998 239.262 218.986 226.971 216.854C214.919 214.766 202.465 212.613 189.492 223.021C188.993 223.412 188.505 223.825 188.05 224.239L149.844 224.271C150.028 222.042 150.147 219.823 150.256 217.605C150.906 205.087 151.513 193.277 164.032 183.25C176.55 173.222 188.169 175.224 200.482 177.366C212.534 179.454 224.977 181.607 237.951 171.2C250.925 160.803 251.586 148.133 252.215 135.877C252.865 123.359 253.472 111.548 265.99 101.521C278.509 91.4943 290.128 93.4954 302.419 95.6378C314.472 97.715 326.925 99.8792 339.899 89.4715C349.816 81.5216 352.526 72.2449 353.545 62.8595L353.588 135.539Z" fill="url(#paint6_linear_1_3)"/>
<path d="M106.825 0.163132C106.641 2.39258 106.522 4.61115 106.414 6.82972C105.763 19.3255 105.156 31.1579 92.6376 41.1849C82.2976 49.4611 72.5862 49.5372 62.5822 48.1125L62.5713 35.8016C62.5713 33.5069 60.7071 31.6581 58.431 31.6581L31.7897 31.6799C29.5027 31.6799 27.6385 33.5396 27.6493 35.8343L27.6601 47.895C24.712 49.1131 21.7314 50.8314 18.7291 53.2457C5.7553 63.6425 5.09414 76.3123 4.45467 88.5579C4.0428 96.6057 3.64177 104.382 0.0650257 111.559L-5.9778e-06 21.4788C-0.0108446 9.76606 9.47294 0.228384 21.157 0.228384L106.825 0.163132Z" fill="url(#paint7_linear_1_3)"/>
<path d="M251.998 0.0543747C250.144 2.86021 247.727 5.5573 244.497 8.14563C231.979 18.1727 220.36 16.1608 208.069 14.0292C196.027 11.9411 183.574 9.78781 170.6 20.1955C157.615 30.5923 156.965 43.2621 156.336 55.5186C155.686 68.0144 155.079 79.8468 142.56 89.8738C130.042 99.9009 118.423 97.889 106.132 95.7574C94.0792 93.6693 81.6256 91.516 68.6518 101.924C55.678 112.331 55.0168 124.99 54.3882 137.247C53.7378 149.764 53.1309 161.575 40.6123 171.602C28.0937 181.629 16.4747 179.628 4.1837 177.507C2.82887 177.268 1.47404 177.04 0.130055 176.822L0.0867004 114.235C4.88821 106.122 5.34343 97.2582 5.78781 88.6123C6.43813 76.0948 7.04509 64.2842 19.5637 54.2571C22.3059 52.0603 25.0047 50.429 27.6818 49.2544V55.1706C27.6818 57.4544 29.5461 59.3141 31.833 59.3141L58.4743 59.2924C60.7504 59.2924 62.6038 57.4218 62.6038 55.138V49.4176C72.5754 50.8096 82.8504 50.7117 93.4722 42.1963C106.435 31.8104 107.096 19.1406 107.725 6.89497C107.844 4.63289 107.953 2.3817 108.159 0.163128L251.998 0.0543747Z" fill="url(#paint8_linear_1_3)"/>
<path d="M253.537 0.0543774C251.575 3.22998 248.92 6.28595 245.332 9.17879C232.358 19.5756 219.905 17.4114 207.852 15.3451C195.55 13.2027 183.931 11.2016 171.424 21.2287C158.905 31.2557 158.298 43.0772 157.648 55.5839C157.008 67.8295 156.358 80.4993 143.384 90.907C130.41 101.304 117.967 99.1614 105.915 97.0733C93.6131 94.9309 81.9833 92.9298 69.4647 102.957C56.9461 112.984 56.3391 124.805 55.6888 137.312C55.0493 149.558 54.4098 162.228 41.4252 172.635C28.4514 183.032 15.9978 180.89 3.95609 178.802C2.66629 178.573 1.39817 178.356 0.119217 178.16L0.140894 203.771C0.140894 207.415 1.06218 210.851 2.69881 213.853C2.753 213.962 2.78552 214.049 2.86139 214.125C6.56819 220.247 13.2881 224.337 20.9727 224.337L74.949 224.293C76.2063 223.532 77.4527 222.629 78.7317 221.618C91.2503 211.591 91.8572 199.769 92.5076 187.263C93.147 175.017 93.7974 162.347 106.771 151.939C119.745 141.532 132.199 143.685 144.251 145.773C156.553 147.894 168.172 149.917 180.68 139.89C193.187 129.862 193.805 118.03 194.456 105.534C195.095 93.2887 195.735 80.6189 208.719 70.2112C221.693 59.8144 234.147 61.9568 246.188 64.0449C258.49 66.1656 270.109 68.1884 282.617 58.1613C288.589 53.3762 291.841 48.1886 293.694 42.7183L295.07 34.6053H295.515C296.013 31.0926 296.198 27.482 296.382 23.8061C296.794 15.8019 297.227 7.62362 301.075 0.0217514L253.537 0.0543774ZM272.754 34.4748H279.788C280.742 34.5183 281.511 34.812 281.771 35.8343L283.311 43.2186C281.793 39.3579 278.173 36.1496 272.7 34.8229L272.754 34.4748ZM286.074 51.2881H281.284L277.219 37.3677C280.135 39.2491 282.617 42.229 283.495 44.2953L283.972 46.0245L288.416 34.6271H293.217L286.074 51.2881Z" fill="url(#paint9_linear_1_3)"/>
<path d="M272.7 34.812L272.754 34.4748H279.788C280.742 34.5183 281.511 34.812 281.771 35.8343L283.311 43.2186C281.804 39.347 278.173 36.1388 272.7 34.812Z" fill="url(#paint10_linear_1_3)"/>
<path d="M283.495 44.3062L283.972 46.0353L288.416 34.638H293.217L286.074 51.299H281.284L277.219 37.3786C280.135 39.26 282.617 42.229 283.495 44.3062Z" fill="url(#paint11_linear_1_3)"/>
<path d="M350.9 10.4077C349.22 7.53661 346.879 5.13316 344.072 3.33873C340.788 1.21804 336.875 0 332.691 0L302.527 0.0217507C298.539 7.43874 298.116 15.4974 297.683 23.8714C297.498 27.4385 297.325 31.0382 296.826 34.6053H299.601L296.761 51.299H292.231L292.784 48.0581C290.757 51.9624 287.776 55.7035 283.43 59.1945C270.456 69.5913 258.002 67.4271 245.95 65.3608C233.648 63.2184 222.029 61.2173 209.521 71.2444C197.003 81.2715 196.396 93.0929 195.745 105.6C195.106 117.845 194.456 130.515 181.482 140.923C168.508 151.32 156.065 149.177 144.013 147.089C131.711 144.947 120.081 142.946 107.562 152.973C95.0438 163 94.4369 174.821 93.7865 187.328C93.1471 199.573 92.5076 212.243 79.5229 222.651C78.7859 223.249 78.038 223.793 77.301 224.304L148.511 224.25C148.706 222.042 148.825 219.78 148.944 217.518C149.584 205.272 150.234 192.602 163.208 182.195C176.182 171.798 188.635 173.94 200.688 176.028C212.99 178.149 224.609 180.172 237.116 170.145C249.624 160.118 250.242 148.285 250.892 135.79C251.532 123.544 252.171 110.874 265.156 100.466C278.13 90.0696 290.583 92.212 302.625 94.3001C314.927 96.4208 326.546 98.4436 339.054 88.4165C351.572 78.3895 352.179 66.568 352.829 54.0613C352.981 50.9619 353.155 47.8406 353.523 44.7412L353.501 20.587C353.501 16.9003 352.569 13.4202 350.9 10.4077ZM304.663 51.56C302.625 51.5383 300.674 51.125 299.612 50.6682L300.251 46.9271L300.826 47.1881C302.311 47.808 303.286 48.069 305.096 48.069C306.397 48.069 307.795 47.5579 307.817 46.4377C307.827 45.6982 307.221 45.1762 305.465 44.3605C303.73 43.5666 301.454 42.229 301.487 39.8364C301.509 36.5955 304.673 34.3117 309.15 34.3117C310.906 34.3117 312.326 34.6815 313.214 35.0186L312.596 38.6292L312.185 38.4443C311.339 38.1072 310.266 37.7918 308.781 37.8027C307.015 37.8027 306.18 38.5531 306.18 39.2491C306.169 40.0213 307.156 40.5433 308.738 41.3154C311.35 42.5117 312.564 43.9473 312.531 45.8613C312.521 49.3088 309.421 51.5491 304.663 51.56ZM324.324 51.2881C324.324 51.2881 323.912 49.3741 323.771 48.7977H317.962C317.788 49.2327 317.008 51.2881 317.008 51.2881H312.239L318.959 35.9648C319.436 34.8881 320.259 34.5836 321.343 34.5836H324.844L328.529 51.2772L324.324 51.2881Z" fill="url(#paint12_linear_1_3)"/>
<path d="M301.476 39.8255C301.498 36.5847 304.663 34.3008 309.139 34.3008C310.895 34.3008 312.315 34.6706 313.203 35.0077L312.586 38.6184L312.174 38.4335C311.328 38.0963 310.255 37.781 308.77 37.7918C307.004 37.7918 306.169 38.5422 306.169 39.2382C306.158 40.0104 307.145 40.5324 308.727 41.3046C311.339 42.5009 312.553 43.9364 312.521 45.8505C312.499 49.3197 309.399 51.56 304.641 51.56C302.603 51.5383 300.652 51.125 299.59 50.6682L300.23 46.9271L300.804 47.1881C302.289 47.808 303.264 48.069 305.075 48.069C306.375 48.069 307.773 47.5579 307.795 46.4377C307.806 45.6982 307.199 45.1762 305.443 44.3605C303.72 43.5666 301.454 42.2181 301.476 39.8255Z" fill="url(#paint13_linear_1_3)"/>
<path d="M312.239 51.299L318.959 35.9756C319.436 34.899 320.259 34.5945 321.343 34.5945H324.844L328.529 51.2881H324.313C324.313 51.2881 323.901 49.3741 323.76 48.7977H317.951C317.777 49.2327 316.997 51.2881 316.997 51.2881L312.239 51.299Z" fill="url(#paint14_linear_1_3)"/>
<path d="M353.534 62.8377L353.588 135.539C345.351 137.965 337.287 136.562 328.909 135.126C316.867 133.038 304.413 130.885 291.44 141.292C278.455 151.689 277.805 164.359 277.176 176.616C276.526 189.111 275.919 200.944 263.4 210.971C250.881 220.998 239.262 218.986 226.971 216.854C214.919 214.766 202.465 212.613 189.492 223.021C188.993 223.412 188.505 223.825 188.05 224.239L149.844 224.271C150.028 222.042 150.147 219.823 150.256 217.605C150.906 205.087 151.513 193.277 164.032 183.25C176.55 173.222 188.169 175.224 200.482 177.366C212.534 179.454 224.977 181.607 237.951 171.2C250.925 160.803 251.586 148.133 252.215 135.877C252.865 123.359 253.472 111.548 265.99 101.521C278.509 91.4943 290.128 93.4953 302.419 95.6378C314.472 97.715 326.925 99.8792 339.899 89.4715C349.805 81.4998 352.515 72.2232 353.534 62.8377Z" fill="url(#paint15_linear_1_3)"/>
<path d="M350.9 10.4077C352.569 13.4202 353.501 16.9003 353.501 20.587L353.523 44.7412C353.155 47.8515 352.992 50.9727 352.829 54.0613C352.179 66.5789 351.572 78.3895 339.054 88.4166C326.535 98.4436 314.916 96.4317 302.625 94.3001C290.583 92.2121 278.13 90.0587 265.156 100.466C252.171 110.863 251.521 123.533 250.892 135.79C250.242 148.285 249.635 160.118 237.116 170.145C224.598 180.172 212.979 178.16 200.688 176.028C188.635 173.94 176.182 171.787 163.208 182.195C150.234 192.591 149.573 205.261 148.944 217.518C148.825 219.78 148.717 222.031 148.511 224.25L77.301 224.304C78.038 223.804 78.7859 223.249 79.5229 222.651C92.5076 212.254 93.1579 199.584 93.7865 187.328C94.4368 174.81 95.0438 163 107.562 152.973C120.081 142.946 131.711 144.947 144.013 147.089C156.065 149.177 168.508 151.33 181.482 140.923C194.456 130.526 195.117 117.856 195.745 105.6C196.396 93.0821 197.003 81.2715 209.521 71.2444C222.04 61.2173 233.659 63.2184 245.95 65.3608C258.002 67.438 270.456 69.6022 283.43 59.1945C287.776 55.7035 290.746 51.9624 292.784 48.0582L292.231 51.299H296.761L299.601 34.6054H296.826C297.325 31.0382 297.509 27.4385 297.683 23.8714C298.105 15.4974 298.539 7.43874 302.527 0.0217514H301.075C297.217 7.62362 296.794 15.8019 296.382 23.8061C296.187 27.482 296.003 31.0926 295.515 34.6054H295.07L293.694 42.7184C291.83 48.1887 288.578 53.3762 282.617 58.1613C270.098 68.1884 258.479 66.1765 246.188 64.0449C234.147 61.9568 221.693 59.8035 208.719 70.2112C195.735 80.6081 195.084 93.2778 194.456 105.534C193.805 118.03 193.198 129.862 180.68 139.89C168.161 149.917 156.542 147.905 144.251 145.773C132.199 143.685 119.745 141.532 106.771 151.939C93.7974 162.347 93.1037 175.028 92.4751 187.273C91.8247 199.791 91.2178 211.602 78.6992 221.629C77.4311 222.64 76.1846 223.543 74.9165 224.304L20.9402 224.347C13.2665 224.358 6.53568 220.258 2.82887 214.136C6.45981 220.628 13.3748 225.011 21.3087 225L332.843 224.772C344.538 224.761 354.011 215.234 354 203.51L353.87 21.2178C353.87 17.2592 352.797 13.5616 350.9 10.4077ZM353.642 202.858C353.653 214.592 344.169 224.108 332.485 224.119L190.088 224.217C190.153 224.152 190.229 224.097 190.315 224.032C202.834 214.005 214.464 216.006 226.765 218.149C238.818 220.237 251.261 222.39 264.235 211.982C277.208 201.585 277.87 188.916 278.498 176.659C279.149 164.142 279.756 152.331 292.274 142.304C304.793 132.277 316.412 134.278 328.703 136.42C336.821 137.812 345.101 139.248 353.599 136.866L353.642 202.858ZM353.588 135.539C345.351 137.965 337.287 136.562 328.909 135.126C316.867 133.038 304.413 130.885 291.44 141.292C278.455 151.689 277.805 164.359 277.176 176.616C276.526 189.111 275.919 200.944 263.4 210.971C250.881 220.998 239.262 218.986 226.971 216.854C214.919 214.766 202.465 212.613 189.492 223.021C188.993 223.412 188.505 223.825 188.05 224.239L149.844 224.271C150.028 222.042 150.147 219.823 150.256 217.605C150.906 205.087 151.513 193.277 164.032 183.25C176.55 173.222 188.169 175.224 200.482 177.366C212.534 179.454 224.977 181.607 237.951 171.2C250.925 160.803 251.586 148.133 252.215 135.877C252.865 123.359 253.472 111.548 265.99 101.521C278.509 91.4943 290.128 93.4954 302.419 95.6378C314.472 97.715 326.925 99.8792 339.899 89.4715C349.816 81.5216 352.526 72.2449 353.545 62.8595L353.588 135.539Z" fill="url(#paint16_linear_1_3)"/>
<path d="M353.588 136.866L353.631 202.858C353.642 214.592 344.159 224.108 332.474 224.119L190.077 224.217C190.142 224.152 190.218 224.097 190.304 224.032C202.823 214.005 214.453 216.006 226.755 218.149C238.807 220.237 251.25 222.39 264.224 211.982C277.198 201.585 277.859 188.916 278.487 176.659C279.138 164.142 279.745 152.331 292.263 142.304C304.782 132.277 316.401 134.278 328.692 136.42C336.799 137.812 345.091 139.259 353.588 136.866Z" fill="url(#paint17_linear_1_3)"/>
<defs>
<linearGradient id="paint0_linear_1_3" x1="24.0151" y1="130.602" x2="62.6503" y2="31.4556" gradientUnits="userSpaceOnUse">
<stop stop-color="#885DF5"/>
<stop offset="0.9944" stop-color="#6B7CFE"/>
</linearGradient>
<linearGradient id="paint1_linear_1_3" x1="75.8556" y1="220.129" x2="144.334" y2="44.3982" gradientUnits="userSpaceOnUse">
<stop stop-color="#885DF5"/>
<stop offset="0.9944" stop-color="#6B7CFE"/>
</linearGradient>
<linearGradient id="paint2_linear_1_3" x1="277.141" y1="41.1438" x2="279.014" y2="36.3374" gradientUnits="userSpaceOnUse">
<stop stop-color="#885DF5"/>
<stop offset="0.9944" stop-color="#6B7CFE"/>
</linearGradient>
<linearGradient id="paint3_linear_1_3" x1="279.235" y1="51.457" x2="284.508" y2="37.9252" gradientUnits="userSpaceOnUse">
<stop stop-color="#885DF5"/>
<stop offset="0.9944" stop-color="#6B7CFE"/>
</linearGradient>
<linearGradient id="paint4_linear_1_3" x1="303.108" y1="52.975" x2="308.292" y2="39.671" gradientUnits="userSpaceOnUse">
<stop stop-color="#885DF5"/>
<stop offset="0.9944" stop-color="#6B7CFE"/>
</linearGradient>
<linearGradient id="paint5_linear_1_3" x1="318.988" y1="54.9049" x2="324.337" y2="41.1787" gradientUnits="userSpaceOnUse">
<stop stop-color="#885DF5"/>
<stop offset="0.9944" stop-color="#6B7CFE"/>
</linearGradient>
<linearGradient id="paint6_linear_1_3" x1="147.331" y1="291.164" x2="232.562" y2="72.4438" gradientUnits="userSpaceOnUse">
<stop stop-color="#885DF5"/>
<stop offset="0.9944" stop-color="#6B7CFE"/>
</linearGradient>
<linearGradient id="paint7_linear_1_3" x1="0.0246012" y1="55.898" x2="106.87" y2="55.8214" gradientUnits="userSpaceOnUse">
<stop stop-color="#4D338A"/>
<stop offset="0.9888" stop-color="#252857"/>
</linearGradient>
<linearGradient id="paint8_linear_1_3" x1="0.0488494" y1="89.7482" x2="252.066" y2="89.5677" gradientUnits="userSpaceOnUse">
<stop stop-color="#6947BD"/>
<stop offset="0.9888" stop-color="#252857"/>
</linearGradient>
<linearGradient id="paint9_linear_1_3" x1="0.0650066" y1="112.3" x2="301.147" y2="112.085" gradientUnits="userSpaceOnUse">
<stop stop-color="#885DF5"/>
<stop offset="0.9888" stop-color="#2E3670"/>
</linearGradient>
<linearGradient id="paint10_linear_1_3" x1="277.141" y1="41.1438" x2="279.014" y2="36.3374" gradientUnits="userSpaceOnUse">
<stop stop-color="#885DF5"/>
<stop offset="0.9944" stop-color="#6B7CFE"/>
</linearGradient>
<linearGradient id="paint11_linear_1_3" x1="279.235" y1="51.457" x2="284.508" y2="37.9252" gradientUnits="userSpaceOnUse">
<stop stop-color="#885DF5"/>
<stop offset="0.9944" stop-color="#6B7CFE"/>
</linearGradient>
<linearGradient id="paint12_linear_1_3" x1="77.2192" y1="112.245" x2="353.572" y2="112.047" gradientUnits="userSpaceOnUse">
<stop stop-color="#885DF5"/>
<stop offset="0.9944" stop-color="#4551A6"/>
</linearGradient>
<linearGradient id="paint13_linear_1_3" x1="303.108" y1="52.975" x2="308.292" y2="39.671" gradientUnits="userSpaceOnUse">
<stop stop-color="#885DF5"/>
<stop offset="0.9944" stop-color="#6B7CFE"/>
</linearGradient>
<linearGradient id="paint14_linear_1_3" x1="318.988" y1="54.9049" x2="324.337" y2="41.1787" gradientUnits="userSpaceOnUse">
<stop stop-color="#885DF5"/>
<stop offset="0.9944" stop-color="#6B7CFE"/>
</linearGradient>
<linearGradient id="paint15_linear_1_3" x1="149.775" y1="143.617" x2="353.595" y2="143.471" gradientUnits="userSpaceOnUse">
<stop stop-color="#885DF5"/>
<stop offset="0.9944" stop-color="#5C6BDB"/>
</linearGradient>
<linearGradient id="paint16_linear_1_3" x1="147.331" y1="291.164" x2="232.562" y2="72.4438" gradientUnits="userSpaceOnUse">
<stop stop-color="#885DF5"/>
<stop offset="0.9944" stop-color="#6B7CFE"/>
</linearGradient>
<linearGradient id="paint17_linear_1_3" x1="190.045" y1="179.496" x2="353.62" y2="179.379" gradientUnits="userSpaceOnUse">
<stop stop-color="#885DF5"/>
<stop offset="0.9944" stop-color="#6B7CFE"/>
</linearGradient>
</defs>
</svg>
